<?xml version="1.0" encoding="UTF-8" standalone="no" ?>
<!DOCTYPE svg PUBLIC "-//W3C//DTD SVG 1.1//EN" "http://www.w3.org/Graphics/SVG/1.1/DTD/svg11.dtd">
<svg xmlns="http://www.w3.org/2000/svg" xmlns:xlink="http://www.w3.org/1999/xlink" version="1.1" width="1080" height="1080" viewBox="0 0 1080 1080" xml:space="preserve">
<desc>Created with Fabric.js 5.2.4</desc>
<defs>
</defs>
<g transform="matrix(1 0 0 1 540 540)" id="c7035fc3-acdf-4762-9d6e-1f69c40ded74"  >
</g>
<g transform="matrix(1 0 0 1 540 540)" id="565916b9-980e-4103-b611-f52e8b482f7d"  >
<rect style="stroke: none; stroke-width: 1; stroke-dasharray: none; stroke-linecap: butt; stroke-dashoffset: 0; stroke-linejoin: miter; stroke-miterlimit: 4; fill: rgb(255,251,251); fill-rule: nonzero; opacity: 1;" vector-effect="non-scaling-stroke"  x="-540" y="-540" rx="0" ry="0" width="1080" height="1080" />
</g>
<g transform="matrix(12.38 0 0 11.79 539.92 540.02)"  >
<path style="stroke: rgb(0,0,0); stroke-width: 0; stroke-dasharray: none; stroke-linecap: butt; stroke-dashoffset: 0; stroke-linejoin: miter; stroke-miterlimit: 4; fill: rgb(13,27,145); fill-rule: nonzero; opacity: 1;" vector-effect="non-scaling-stroke"  transform=" translate(-42.93, -28.5)" d="M 81.2844 7.59925 C 79.1383 3.6647 76.379 1.41639 73.4153 1.1098 C 45.618 -1.49619 10.156 4.68666 2.90012 11.3805 C -0.267956 14.2931 -0.830034 21.1402 1.16279 32.3307 C 2.54243 40.1486 4.68855 47.1491 4.73964 47.4557 L 5.19953 48.9886 L 14.0395 48.0177 C 14.7548 52.8209 18.8938 56.5 23.9014 56.5 C 29.3689 56.5 33.8655 52.0545 33.8655 46.5359 C 33.8655 46.2804 33.8655 46.076 33.8144 45.8205 L 54.7645 43.4189 C 54.7645 43.47 54.7645 43.5722 54.7645 43.6233 C 54.7645 49.0908 59.2101 53.5874 64.7287 53.5874 C 70.1961 53.5874 74.6928 49.1419 74.6928 43.6233 C 74.6928 42.8057 74.5906 41.9882 74.3862 41.2217 L 83.3283 40.1997 L 83.7882 39.2289 C 87.3651 31.8708 86.1387 16.4903 81.2844 7.59925 Z M 23.9014 52.5655 C 20.58 52.5655 17.8718 49.8573 17.8718 46.5359 C 17.8718 43.2145 20.58 40.5063 23.9014 40.5063 C 27.2227 40.5063 29.9309 43.2145 29.9309 46.5359 C 29.9309 49.8573 27.2227 52.5655 23.9014 52.5655 Z M 64.6776 49.704 C 61.3562 49.704 58.648 46.9958 58.648 43.6744 C 58.648 40.353 61.3562 37.6448 64.6776 37.6448 C 67.9989 37.6448 70.7071 40.353 70.7071 43.6744 C 70.7071 46.9958 67.9989 49.704 64.6776 49.704 Z M 80.6201 36.5718 L 72.4955 37.4916 C 71.8824 36.674 71.1159 36.0097 70.2983 35.4476 C 68.7143 34.3235 66.7726 33.7103 64.6776 33.7103 C 61.6117 33.7103 58.8013 35.141 57.0129 37.3383 C 56.4508 37.9514 55.9398 38.6668 55.4288 39.4333 L 32.7413 41.9882 C 32.5369 41.5794 32.2814 41.1706 32.026 40.8129 C 31.9749 40.7618 31.9749 40.7107 31.9238 40.6596 C 30.0842 38.2069 27.1716 36.5718 23.9014 36.5718 C 21.3465 36.5718 19.0471 37.5427 17.3097 39.0756 C 15.8279 40.3019 14.7037 41.9882 14.0395 44.0321 L 8.00991 44.6964 C 4.79074 33.5059 2.03145 17.5123 5.55721 14.242 C 10.4115 9.74536 35.2962 4.38007 59.6189 4.38007 C 64.1666 4.38007 68.6632 4.58447 73.0065 4.99325 C 74.6417 5.19764 76.379 6.78168 77.8608 9.48987 C 81.8465 16.7969 83.1239 29.9802 80.6201 36.5718 Z M 14.4994 21.8045 C 14.295 21.6512 13.9884 21.4979 13.5796 21.3446 C 13.1708 21.1913 12.7109 21.1402 12.1999 21.1402 C 11.5868 21.1402 11.0758 21.2424 10.6159 21.3957 C 10.2071 21.6001 9.84944 21.8045 9.54285 22.1111 L 9.54285 30.1845 L 6.17039 30.1845 L 6.17039 18.2276 L 9.54285 18.0232 L 9.54285 19.1985 L 10.6159 18.5342 C 10.9736 18.3298 11.3313 18.1765 11.7912 18.0232 C 12.251 17.8699 12.6087 17.8188 13.0175 17.8188 C 13.4263 17.8188 13.7329 17.8188 13.9373 17.8699 C 14.1928 17.921 14.3461 17.9721 14.4994 18.0232 L 14.4994 21.8045 Z M 24.1058 23.133 C 23.9525 22.2133 23.5948 21.549 23.0838 21.0891 C 22.5728 20.6292 21.9597 20.4248 21.1932 20.4248 C 20.3245 20.4248 19.6602 20.6803 19.2004 21.1913 C 18.7405 21.7023 18.485 22.3666 18.3828 23.1841 L 24.1058 23.1841 L 24.1058 23.133 Z M 27.2738 24.7171 L 18.4339 24.7171 C 18.6383 25.6879 18.996 26.4033 19.5581 26.8121 C 20.1201 27.2209 20.8355 27.4764 21.6531 27.4764 C 22.3173 27.4764 23.0327 27.3742 23.8503 27.1698 C 24.6679 26.9654 25.281 26.7099 25.7409 26.4033 L 25.7409 29.4181 C 25.281 29.7247 24.6679 29.9802 23.7481 30.1334 C 22.8794 30.2867 22.1641 30.3889 21.6531 30.3889 C 19.5581 30.3889 17.8718 29.8269 16.6966 28.6516 C 15.5213 27.4764 14.9081 25.9434 14.9081 24.0017 C 14.9081 22.06 15.5213 20.4759 16.7477 19.3007 C 17.974 18.1254 19.4559 17.5122 21.2954 17.5122 C 23.1349 17.5122 24.5657 18.1765 25.6387 19.454 C 26.7118 20.7314 27.2738 22.5199 27.2738 24.7171 Z M 36.9314 26.5055 L 36.9314 21.2424 C 36.727 20.9869 36.4204 20.7825 36.0116 20.6292 C 35.6028 20.4759 35.1429 20.3737 34.632 20.3737 C 33.7122 20.3737 32.9968 20.6292 32.588 21.1913 C 32.1282 21.7534 31.9238 22.622 31.9238 23.7973 C 31.9238 25.0237 32.1793 25.8923 32.6391 26.5055 C 33.099 27.1187 33.7633 27.3742 34.5809 27.3742 C 35.0918 27.3742 35.5517 27.272 35.9605 27.1187 C 36.3693 26.9654 36.6759 26.761 36.9314 26.5055 Z M 40.2527 30.1845 L 37.6978 30.1845 L 36.9825 29.0604 L 35.194 30.0313 C 35.0407 30.1334 34.8363 30.1845 34.5298 30.2356 C 34.2232 30.2867 34.0188 30.2867 33.8144 30.2867 C 32.0771 30.2867 30.7485 29.7247 29.8287 28.4983 C 28.909 27.3231 28.4491 25.8412 28.4491 24.0528 C 28.4491 22.1111 29.0112 20.5781 30.0842 19.454 C 31.2084 18.3298 32.6391 17.7677 34.4276 17.7677 C 34.9385 17.7677 35.3984 17.8188 35.8072 17.8699 C 36.216 17.9721 36.5737 18.0743 36.9314 18.3298 L 36.9314 13.0667 L 40.2527 13.0667 L 40.2527 30.1845 Z M 51.6987 24.7682 C 51.6987 23.8995 51.4432 23.2352 50.9833 22.8264 C 50.5234 22.4177 49.8591 22.2133 49.0927 22.2133 L 46.7422 22.2133 L 46.7422 27.3231 L 49.3993 27.3231 C 50.1657 27.3231 50.7789 27.1187 51.1366 26.6588 C 51.4943 26.25 51.6987 25.5857 51.6987 24.7682 Z M 51.0855 18.2787 C 51.0855 17.6144 50.8811 17.0524 50.4723 16.6436 C 50.0635 16.2348 49.5015 16.0304 48.7861 16.0304 L 46.7422 16.0304 L 46.7422 20.6292 L 48.9905 20.6292 C 49.6548 20.6292 50.1657 20.4248 50.5234 20.0161 C 50.9322 19.5562 51.0855 18.9941 51.0855 18.2787 Z M 55.4799 25.228 C 55.4799 26.7099 55.02 27.9362 54.0492 28.8049 C 53.0783 29.7247 51.852 30.1334 50.3701 30.1334 L 43.0631 30.1334 L 43.0631 13.1178 L 50.2168 13.1178 C 51.5454 13.1178 52.6695 13.4755 53.4871 14.242 C 54.3558 15.0084 54.7645 16.0304 54.7645 17.359 C 54.7645 18.432 54.5091 19.2496 53.9981 19.9139 C 53.4871 20.5781 52.7206 20.9358 51.6987 21.0891 C 52.7206 21.2424 53.5893 21.7023 54.3558 22.4177 C 55.1222 23.133 55.4799 24.0528 55.4799 25.228 Z M 68.7654 30.1845 L 65.3929 30.1845 L 65.3929 28.856 L 63.9622 29.6736 C 63.5534 29.878 63.1446 30.0823 62.7358 30.1845 C 62.3271 30.2867 61.8161 30.3889 61.3562 30.3889 C 60.1809 30.3889 59.2612 30.0313 58.5458 29.3159 C 57.8815 28.6005 57.5238 27.6296 57.5238 26.4033 L 57.5238 18.2787 L 60.8963 18.2787 L 60.8963 25.6368 C 60.8963 26.0967 61.0496 26.4544 61.3562 26.8121 C 61.6628 27.1698 62.1738 27.3231 62.7869 27.3231 C 63.4001 27.3231 63.9111 27.2209 64.3199 26.9654 C 64.7798 26.7099 65.0863 26.5055 65.2907 26.25 L 65.2907 18.2276 L 68.6632 18.2276 L 68.6632 30.1845 L 68.7654 30.1845 Z M 80.5179 26.0967 C 80.5179 27.3742 80.058 28.4472 79.1383 29.2648 C 78.2185 30.0313 77.0433 30.44 75.6636 30.44 C 74.9994 30.44 74.2329 30.3889 73.3642 30.2356 C 72.4445 30.0823 71.678 29.8269 70.9626 29.4692 L 70.9626 26.4544 C 71.5247 26.761 72.1379 27.0165 72.8532 27.272 C 73.5686 27.4764 74.3351 27.6296 75.3059 27.6296 C 75.9702 27.6296 76.4812 27.5275 76.89 27.3742 C 77.2988 27.1698 77.5031 26.8632 77.5031 26.3522 C 77.5031 26.0456 77.3499 25.739 76.9922 25.5346 C 76.6345 25.3302 76.0724 25.1769 75.2037 25.1258 C 73.6708 25.0237 72.6488 24.6149 72.0357 24.0017 C 71.4225 23.3885 71.1159 22.5709 71.1159 21.549 C 71.1159 20.3737 71.5758 19.454 72.4955 18.6875 C 73.4153 17.921 74.5906 17.5633 75.9191 17.5633 C 76.5323 17.5633 77.1455 17.6144 77.8097 17.7166 C 78.474 17.8188 79.0361 17.921 79.5471 18.1254 L 79.5471 21.1913 C 78.9339 20.9358 78.3718 20.7314 77.8097 20.6292 C 77.2477 20.527 76.5834 20.4248 75.9191 20.4248 C 75.357 20.4248 74.9482 20.527 74.6417 20.6803 C 74.3351 20.8847 74.1818 21.0891 74.1818 21.2935 C 74.1818 21.7534 74.3862 22.06 74.8461 22.1622 C 75.2548 22.3155 75.7147 22.4177 76.2257 22.4177 C 77.6564 22.5199 78.7806 22.8775 79.496 23.4907 C 80.1602 24.155 80.5179 25.0237 80.5179 26.0967 Z" stroke-linecap="round" />
</g>
<g transform="matrix(7.89 0 0 3.41 342.47 524.37)" id="fd3c7758-d7f2-452c-aea8-5b1b0a3fd341"  >
<rect style="stroke: rgb(0,0,0); stroke-width: 0; stroke-dasharray: none; stroke-linecap: butt; stroke-dashoffset: 0; stroke-linejoin: miter; stroke-miterlimit: 4; fill: rgb(255,255,255); fill-rule: nonzero; opacity: 1;" vector-effect="non-scaling-stroke"  x="-33.085" y="-33.085" rx="0" ry="0" width="66.17" height="66.17" />
</g>
<g transform="matrix(-4.8 0.27 -0.26 -4.64 845.97 468.29)"  >
<path style="stroke: rgb(0,0,0); stroke-width: 0; stroke-dasharray: none; stroke-linecap: butt; stroke-dashoffset: 0; stroke-linejoin: miter; stroke-miterlimit: 4; fill: rgb(255,255,255); fill-rule: nonzero; opacity: 1;" vector-effect="non-scaling-stroke"  transform=" translate(-50, -50)" d="M 50 20.881 C 29.442 20.881 12.743000000000002 32.034 12.743000000000002 45.772999999999996 C 12.743000000000002 59.513 29.442000000000004 69.976 50 70.612 C 54.387 74.36399999999999 53.804 77.27 67.754 79.11999999999999 C 64.531 76.689 60.409000000000006 74.68199999999999 61.098000000000006 69.76599999999999 C 76.212 66.80799999999999 87.256 57.03099999999999 87.256 45.77399999999999 C 87.257 31.874 70.559 20.881 50 20.881 z" stroke-linecap="round" />
</g>
<g transform="matrix(6.41 0 0 6.41 579.32 496.53)"  >
<path style="stroke: rgb(0,0,0); stroke-width: 0; stroke-dasharray: none; stroke-linecap: butt; stroke-dashoffset: 0; stroke-linejoin: miter; stroke-miterlimit: 4; fill: rgb(255,255,255); fill-rule: nonzero; opacity: 1;" vector-effect="non-scaling-stroke"  transform=" translate(-50, -50)" d="M 18.315 23.231 L 81.684 23.231 C 84.294 23.231 86.48 25.084000000000003 86.48 27.400000000000002 L 86.48 60.235 C 86.48 62.504 84.29400000000001 64.403 81.684 64.403 L 54.877 64.403 L 38.035 76.77 L 44.42999999999999 64.405 L 18.315 64.405 C 15.650000000000002 64.405 13.519000000000002 62.506 13.519000000000002 60.237 L 13.519000000000002 27.401 C 13.519 25.084 15.651 23.231 18.315 23.231 z" stroke-linecap="round" />
</g>
<g transform="matrix(1 0 0 1.22 527.21 479.55)" style="filter: url(#SVGID_87);" id="9b00d6fb-f703-4339-9f7a-5d55e6fb51f6"  >
<filter id="SVGID_87" y="-20%" height="140%" x="-20%" width="140%" >
	<feGaussianBlur in="SourceAlpha" stdDeviation="0"></feGaussianBlur>
	<feOffset dx="0" dy="0" result="oBlur" ></feOffset>
	<feFlood flood-color="rgb(0,0,0)" flood-opacity="1"/>
	<feComposite in2="oBlur" operator="in" />
	<feMerge>
		<feMergeNode></feMergeNode>
		<feMergeNode in="SourceGraphic"></feMergeNode>
	</feMerge>
</filter>
		<text xml:space="preserve" font-family="Raleway" font-size="200" font-style="normal" font-weight="900" style="stroke: none; stroke-width: 1; stroke-dasharray: none; stroke-linecap: butt; stroke-dashoffset: 0; stroke-linejoin: miter; stroke-miterlimit: 4; fill: rgb(13,27,145); fill-rule: nonzero; opacity: 1; white-space: pre;" ><tspan x="-368.3" y="62.83" >T</tspan><tspan x="-258.3" y="62.83" >e</tspan><tspan x="-134.5" y="62.83" >d</tspan><tspan x="-0.5" y="62.83" >B</tspan><tspan x="138.5" y="62.83" >u</tspan><tspan x="268.1" y="62.83" >s</tspan></text>
</g>
</svg>