<?xml version="1.0" encoding="utf-8"?>
<!-- Uploaded to: SVG Repo, www.svgrepo.com, Generator: SVG Repo Mixer Tools -->
<svg width="800px" height="800px" viewBox="0 0 1024 1024" class="icon"  version="1.1" xmlns="http://www.w3.org/2000/svg"><path d="M207.725714 362.788571h721.188572c30.72 0 55.588571 24.868571 55.588571 54.125715v390.582857c0 20.48-17.554286 38.034286-39.497143 38.034286H39.497143V525.165714c1.462857-89.234286 76.068571-162.377143 168.228571-162.377143z" fill="#90CED9" /><path d="M946.468571 855.771429H30.72V525.165714c0-95.085714 78.994286-172.617143 177.005714-172.617143h721.188572c36.571429 0 65.828571 29.257143 65.828571 64.365715v390.582857c0 26.331429-21.942857 48.274286-48.274286 48.274286zM51.2 835.291429h895.268571c16.091429 0 27.794286-11.702857 27.794286-27.794286V416.914286c0-24.868571-20.48-43.885714-45.348571-43.885715H207.725714c-86.308571 0-156.525714 68.754286-156.525714 152.137143v310.125715z" fill="#141515" /><path d="M40.96 763.611429v-122.88h155.062857c-40.96 29.257143-89.234286 68.754286-155.062857 122.88z" fill="#7E8495" /><path d="M40.96 773.851429c-1.462857 0-2.925714 0-4.388571-1.462858-2.925714-1.462857-5.851429-5.851429-5.851429-8.777142v-122.88c0-5.851429 4.388571-10.24 10.24-10.24h155.062857c4.388571 0 8.777143 2.925714 10.24 7.314285 1.462857 4.388571 0 8.777143-4.388571 11.702857-42.422857 29.257143-92.16 70.217143-155.062857 122.88-1.462857 1.462857-2.925714 1.462857-5.851429 1.462858z m10.24-122.88v90.697142c43.885714-36.571429 80.457143-65.828571 114.102857-90.697142H51.2z" fill="#141515" /><path d="M984.502857 567.588571v239.908572c0 20.48-17.554286 38.034286-39.497143 38.034286H39.497143v-81.92c263.314286-217.965714 245.76-201.874286 650.971428-201.874286 143.36 1.462857 235.52-1.462857 294.034286 5.851428z" fill="#E9606E" /><path d="M946.468571 855.771429H40.96c-5.851429 0-10.24-4.388571-10.24-10.24v-81.92c0-2.925714 1.462857-5.851429 4.388571-7.314286C263.314286 567.588571 282.331429 552.96 555.885714 552.96H770.925714c99.474286 0 168.228571 0 215.04 4.388571 5.851429 0 8.777143 4.388571 8.777143 10.24v239.908572c0 26.331429-21.942857 48.274286-48.274286 48.274286zM51.2 835.291429h895.268571c16.091429 0 27.794286-11.702857 27.794286-27.794286V576.365714c-45.348571-4.388571-111.177143-4.388571-203.337143-4.388571H614.4C292.571429 570.514286 291.108571 570.514286 51.2 768v67.291429z" fill="#141515" /><path d="M984.502857 671.451429v81.92H346.697143c-21.942857 0-40.96-19.017143-40.96-40.96 0-21.942857 19.017143-40.96 40.96-40.96h637.805714z" fill="#F08FA2" /><path d="M984.502857 763.611429H346.697143c-27.794286 0-51.2-23.405714-51.2-51.2s23.405714-51.2 51.2-51.2h637.805714c5.851429 0 10.24 4.388571 10.24 10.24v81.92c0 5.851429-4.388571 10.24-10.24 10.24z m-637.805714-80.457143c-16.091429 0-30.72 13.165714-30.72 30.72 0 16.091429 13.165714 30.72 30.72 30.72h627.565714v-61.44H346.697143z" fill="#141515" /><path d="M57.051429 845.531429h902.582857v59.977142H57.051429z" fill="#7E8495" /><path d="M959.634286 915.748571H57.051429c-5.851429 0-10.24-4.388571-10.24-10.24v-59.977142c0-5.851429 4.388571-10.24 10.24-10.24h902.582857c5.851429 0 10.24 4.388571 10.24 10.24v59.977142c0 4.388571-4.388571 10.24-10.24 10.24z m-892.342857-21.942857h882.102857v-38.034285H67.291429v38.034285z" fill="#141515" /><path d="M185.782857 956.708571c43.885714 0 78.994286-35.108571 78.994286-78.994285s-35.108571-78.994286-78.994286-78.994286S106.788571 833.828571 106.788571 877.714286s35.108571 78.994286 78.994286 78.994285z" fill="#A1A69C" /><path d="M185.782857 966.948571c-49.737143 0-89.234286-40.96-89.234286-89.234285 0-49.737143 40.96-89.234286 89.234286-89.234286 49.737143 0 89.234286 40.96 89.234286 89.234286 0 49.737143-39.497143 89.234286-89.234286 89.234285z m0-157.988571C147.748571 808.96 117.028571 839.68 117.028571 877.714286s30.72 68.754286 68.754286 68.754285 68.754286-30.72 68.754286-68.754285-30.72-68.754286-68.754286-68.754286z" fill="#141515" /><path d="M185.782857 877.714286m-38.034286 0a38.034286 38.034286 0 1 0 76.068572 0 38.034286 38.034286 0 1 0-76.068572 0Z" fill="#DAD9B4" /><path d="M185.782857 925.988571c-26.331429 0-48.274286-21.942857-48.274286-48.274285s21.942857-48.274286 48.274286-48.274286S234.057143 851.382857 234.057143 877.714286c-1.462857 26.331429-21.942857 48.274286-48.274286 48.274285z m0-76.068571c-14.628571 0-26.331429 11.702857-26.331428 26.331429s11.702857 26.331429 26.331428 26.331428 26.331429-11.702857 26.331429-26.331428c0-13.165714-11.702857-26.331429-26.331429-26.331429z" fill="#141515" /><path d="M653.897143 956.708571c43.885714 0 78.994286-35.108571 78.994286-78.994285s-35.108571-78.994286-78.994286-78.994286-78.994286 35.108571-78.994286 78.994286 35.108571 78.994286 78.994286 78.994285z" fill="#A1A69C" /><path d="M653.897143 966.948571c-49.737143 0-89.234286-40.96-89.234286-89.234285 0-49.737143 40.96-89.234286 89.234286-89.234286 49.737143 0 89.234286 40.96 89.234286 89.234286 1.462857 49.737143-39.497143 89.234286-89.234286 89.234285z m0-157.988571c-38.034286 0-68.754286 30.72-68.754286 68.754286s30.72 68.754286 68.754286 68.754285 68.754286-30.72 68.754286-68.754285-30.72-68.754286-68.754286-68.754286z" fill="#141515" /><path d="M851.382857 956.708571c43.885714 0 78.994286-35.108571 78.994286-78.994285s-35.108571-78.994286-78.994286-78.994286-78.994286 35.108571-78.994286 78.994286 36.571429 78.994286 78.994286 78.994285z" fill="#A1A69C" /><path d="M851.382857 966.948571c-49.737143 0-89.234286-40.96-89.234286-89.234285 0-49.737143 40.96-89.234286 89.234286-89.234286 49.737143 0 89.234286 40.96 89.234286 89.234286 1.462857 49.737143-39.497143 89.234286-89.234286 89.234285z m0-157.988571c-38.034286 0-68.754286 30.72-68.754286 68.754286s30.72 68.754286 68.754286 68.754285 68.754286-30.72 68.754286-68.754285c1.462857-38.034286-30.72-68.754286-68.754286-68.754286z" fill="#141515" /><path d="M653.897143 877.714286m-38.034286 0a38.034286 38.034286 0 1 0 76.068572 0 38.034286 38.034286 0 1 0-76.068572 0Z" fill="#DAD9B4" /><path d="M653.897143 925.988571c-26.331429 0-48.274286-21.942857-48.274286-48.274285s21.942857-48.274286 48.274286-48.274286S702.171429 851.382857 702.171429 877.714286s-21.942857 48.274286-48.274286 48.274285z m0-76.068571c-14.628571 0-26.331429 11.702857-26.331429 26.331429s11.702857 26.331429 26.331429 26.331428 26.331429-11.702857 26.331428-26.331428c1.462857-13.165714-10.24-26.331429-26.331428-26.331429z" fill="#141515" /><path d="M851.382857 877.714286m-38.034286 0a38.034286 38.034286 0 1 0 76.068572 0 38.034286 38.034286 0 1 0-76.068572 0Z" fill="#DAD9B4" /><path d="M851.382857 925.988571c-26.331429 0-48.274286-21.942857-48.274286-48.274285s21.942857-48.274286 48.274286-48.274286 48.274286 21.942857 48.274286 48.274286-21.942857 48.274286-48.274286 48.274285z m0-76.068571c-14.628571 0-26.331429 11.702857-26.331428 26.331429s11.702857 26.331429 26.331428 26.331428 26.331429-11.702857 26.331429-26.331428c1.462857-13.165714-10.24-26.331429-26.331429-26.331429z" fill="#141515" /><path d="M294.034286 289.645714c-4.388571 0-8.777143-2.925714-10.24-7.314285-1.462857-5.851429 1.462857-11.702857 5.851428-13.165715L855.771429 58.514286c5.851429-1.462857 11.702857 1.462857 13.165714 5.851428 1.462857 5.851429-1.462857 11.702857-5.851429 13.165715L296.96 288.182857c0 1.462857-1.462857 1.462857-2.925714 1.462857z" fill="#141515" /><path d="M40.96 773.851429c-1.462857 0-2.925714 0-4.388571-1.462858-5.851429-2.925714-7.314286-8.777143-5.851429-13.165714l80.457143-191.634286c2.925714-5.851429 8.777143-7.314286 13.165714-5.851428 5.851429 2.925714 7.314286 8.777143 5.851429 13.165714L49.737143 766.537143c0 4.388571-4.388571 7.314286-8.777143 7.314286z" fill="#141515" /><path d="M184.32 582.217143H93.622857c-5.851429 0-10.24-4.388571-10.24-10.24s4.388571-10.24 10.24-10.24h90.697143c5.851429 0 10.24 4.388571 10.24 10.24s-4.388571 10.24-10.24 10.24z" fill="#141515" /><path d="M242.834286 260.388571h253.074285c10.24 0 19.017143 8.777143 19.017143 19.017143V336.457143c0 10.24-8.777143 19.017143-19.017143 19.017143H242.834286c-10.24 0-19.017143-8.777143-19.017143-19.017143v-57.051429c0-10.24 8.777143-19.017143 19.017143-19.017143z" fill="#7E8495" /><path d="M495.908571 365.714286H242.834286c-16.091429 0-29.257143-13.165714-29.257143-29.257143v-57.051429c0-16.091429 13.165714-29.257143 29.257143-29.257143h253.074285c16.091429 0 29.257143 13.165714 29.257143 29.257143V336.457143c0 16.091429-13.165714 29.257143-29.257143 29.257143z m-253.074285-95.085715c-4.388571 0-8.777143 4.388571-8.777143 8.777143V336.457143c0 4.388571 4.388571 8.777143 8.777143 8.777143h253.074285c4.388571 0 8.777143-4.388571 8.777143-8.777143v-57.051429c0-4.388571-4.388571-8.777143-8.777143-8.777143H242.834286z" fill="#141515" /><path d="M181.394286 320.365714h741.668571V365.714286H181.394286z" fill="#E9606E" /><path d="M921.6 375.954286H179.931429c-5.851429 0-10.24-4.388571-10.24-10.24v-45.348572c0-5.851429 4.388571-10.24 10.24-10.24H921.6c5.851429 0 10.24 4.388571 10.24 10.24V365.714286c1.462857 5.851429-4.388571 10.24-10.24 10.24z m-729.965714-20.48h719.725714v-24.868572H190.171429l1.462857 24.868572z" fill="#141515" /><path d="M718.262857 367.177143h49.737143v190.171428h-49.737143z" fill="#F08FA2" /><path d="M768 569.051429h-49.737143c-5.851429 0-10.24-4.388571-10.24-10.24v-190.171429c0-5.851429 4.388571-10.24 10.24-10.24h49.737143c5.851429 0 10.24 4.388571 10.24 10.24v190.171429c0 4.388571-4.388571 10.24-10.24 10.24z m-39.497143-21.942858h29.257143V377.417143h-29.257143v169.691428z" fill="#141515" /><path d="M449.097143 367.177143h49.737143v190.171428h-49.737143z" fill="#F08FA2" /><path d="M497.371429 569.051429h-49.737143c-5.851429 0-10.24-4.388571-10.24-10.24v-190.171429c0-5.851429 4.388571-10.24 10.24-10.24H497.371429c5.851429 0 10.24 4.388571 10.24 10.24v190.171429c0 4.388571-4.388571 10.24-10.24 10.24z m-38.034286-21.942858h29.257143V377.417143h-29.257143v169.691428z" fill="#141515" /><path d="M908.434286 637.805714H364.251429c-5.851429 0-10.24-4.388571-10.24-10.24s4.388571-10.24 10.24-10.24h544.182857c5.851429 0 10.24 4.388571 10.24 10.24s-4.388571 10.24-10.24 10.24z" fill="#141515" /><path d="M808.96 456.411429c-2.925714 0-5.851429-1.462857-7.314286-2.925715-4.388571-4.388571-4.388571-10.24 0-14.628571l46.811429-46.811429c4.388571-4.388571 10.24-4.388571 14.628571 0s4.388571 10.24 0 14.628572L816.274286 453.485714c-1.462857 2.925714-4.388571 2.925714-7.314286 2.925715z" fill="#141515" /><path d="M816.274286 510.537143c-2.925714 0-5.851429-1.462857-7.314286-2.925714-4.388571-4.388571-4.388571-10.24 0-14.628572l84.845714-87.771428c4.388571-4.388571 10.24-4.388571 14.628572 0s4.388571 10.24 0 14.628571l-84.845715 87.771429c-1.462857 2.925714-4.388571 2.925714-7.314285 2.925714z" fill="#141515" /><path d="M119.954286 468.114286c-2.925714 0-5.851429-1.462857-7.314286-2.925715-4.388571-4.388571-4.388571-10.24 0-14.628571l46.811429-46.811429c4.388571-4.388571 10.24-4.388571 14.628571 0s4.388571 10.24 0 14.628572l-46.811429 46.811428c-1.462857 1.462857-4.388571 2.925714-7.314285 2.925715z" fill="#141515" /><path d="M127.268571 522.24c-2.925714 0-5.851429-1.462857-7.314285-2.925714-4.388571-4.388571-4.388571-10.24 0-14.628572l84.845714-87.771428c4.388571-4.388571 10.24-4.388571 14.628571 0s4.388571 10.24 0 14.628571l-84.845714 87.771429c-1.462857 1.462857-4.388571 2.925714-7.314286 2.925714z" fill="#141515" /></svg>